<?xml version="1.0" encoding="UTF-8"?>
<svg version="1.1" xmlns="http://www.w3.org/2000/svg" width="352" height="352">
<path d="M0 0 C31.89539007 29.29227503 54.94443151 69.94320518 57 114 C58.86112792 162.83319332 45.45815039 207.74625984 12.02197266 244.15380859 C-17.84187485 275.99492669 -58.90180999 297.43366809 -103.06201172 299.11669922 C-152.05096664 300.52963937 -196.35340126 285.72344141 -232.35546875 251.95703125 C-264.16787589 221.42135265 -283.9358447 179.88015308 -285.21484375 135.53515625 C-286.12868682 86.58407725 -269.84000608 42.86056647 -235.84326172 7.44238281 C-172.84320243 -56.62789266 -66.89169967 -60.33589533 0 0 Z " fill="#111111" transform="translate(291,47)"/>
<path d="M0 0 C0.95481766 -0.0127597 1.90963531 -0.02551941 2.89338684 -0.03866577 C3.91429916 -0.04089142 4.93521149 -0.04311707 5.98706055 -0.04541016 C7.04861862 -0.05206696 8.1101767 -0.05872375 9.2039032 -0.06558228 C11.44727856 -0.07569457 13.69068391 -0.08039974 15.93408203 -0.08007812 C19.35133958 -0.08444399 22.76729758 -0.12076 26.18432617 -0.15869141 C28.36856657 -0.16456143 30.55281307 -0.16852958 32.73706055 -0.17041016 C33.75190018 -0.18478119 34.76673981 -0.19915222 35.81233215 -0.21395874 C43.10674909 -0.16741136 48.61486848 1.19071951 54.11987305 6.14208984 C54.57491211 6.72732422 55.02995117 7.31255859 55.4987793 7.91552734 C55.97186523 8.50591797 56.44495117 9.09630859 56.93237305 9.70458984 C58.0612793 11.29052734 58.0612793 11.29052734 59.0612793 13.29052734 C63.44479086 13.63259328 67.6882584 13.8187752 72.0612793 13.29052734 C74.65089018 10.69779197 74.65089018 10.69779197 76.0612793 7.29052734 C79.8131902 3.3574162 84.0034413 0.63016869 89.46894836 0.02310181 C90.3041954 0.01547821 91.13944244 0.00785461 92 0 C92.95481766 -0.0127597 93.90963531 -0.02551941 94.89338684 -0.03866577 C96.42475533 -0.04200424 96.42475533 -0.04200424 97.98706055 -0.04541016 C99.57939766 -0.05539536 99.57939766 -0.05539536 101.2039032 -0.06558228 C103.44727856 -0.07569457 105.69068391 -0.08039974 107.93408203 -0.08007812 C111.35133958 -0.08444399 114.76729758 -0.12076 118.18432617 -0.15869141 C120.36856657 -0.16456143 122.55281307 -0.16852958 124.73706055 -0.17041016 C125.75190018 -0.18478119 126.76673981 -0.19915222 127.81233215 -0.21395874 C135.09159851 -0.16750804 140.50750659 1.22385476 146.0847168 6.03662109 C146.75374023 6.87386719 146.75374023 6.87386719 147.4362793 7.72802734 C148.12850586 8.56140625 148.12850586 8.56140625 148.8347168 9.41162109 C153.21369779 16.11955057 152.7080057 23.5953018 152.0612793 31.29052734 C150.46897914 37.50717228 146.36404026 41.82884971 141.0612793 45.29052734 C137.62229393 46.86720532 134.89806546 47.5465943 131.12255859 47.58105469 C130.16774094 47.59381439 129.21292328 47.6065741 128.22917175 47.61972046 C126.69780327 47.62305893 126.69780327 47.62305893 125.13549805 47.62646484 C123.54316093 47.63645004 123.54316093 47.63645004 121.9186554 47.64663696 C119.67528004 47.65674926 117.43187469 47.66145442 115.18847656 47.66113281 C111.77121901 47.66549867 108.35526102 47.70181469 104.93823242 47.73974609 C102.75399202 47.74561612 100.56974552 47.74958427 98.38549805 47.75146484 C97.37065842 47.76583588 96.35581879 47.78020691 95.31022644 47.79501343 C88.03096009 47.74856272 82.615052 46.35719993 77.0378418 41.54443359 C72.09699965 35.36124096 70.79341297 31.1925841 71.0612793 23.29052734 C67.4312793 23.29052734 63.8012793 23.29052734 60.0612793 23.29052734 C60.1437793 24.44552734 60.2262793 25.60052734 60.3112793 26.79052734 C60.28089479 32.52307025 58.31721403 36.8742181 54.4128418 41.05615234 C49.76573577 45.23651847 45.49189889 47.52291946 39.12255859 47.58105469 C38.16774094 47.59381439 37.21292328 47.6065741 36.22917175 47.61972046 C35.20825943 47.62194611 34.18734711 47.62417175 33.13549805 47.62646484 C32.07393997 47.63312164 31.0123819 47.63977844 29.9186554 47.64663696 C27.67528004 47.65674926 25.43187469 47.66145442 23.18847656 47.66113281 C19.77121901 47.66549867 16.35526102 47.70181469 12.93823242 47.73974609 C10.75399202 47.74561612 8.56974552 47.74958427 6.38549805 47.75146484 C5.37065842 47.76583588 4.35581879 47.78020691 3.31022644 47.79501343 C-3.96903991 47.74856272 -9.384948 46.35719993 -14.9621582 41.54443359 C-15.40817383 40.98626953 -15.85418945 40.42810547 -16.3137207 39.85302734 C-16.77520508 39.29744141 -17.23668945 38.74185547 -17.7121582 38.16943359 C-22.09113919 31.46150412 -21.5854471 23.98575288 -20.9387207 16.29052734 C-19.34642054 10.0738824 -15.24148166 5.75220498 -9.9387207 2.29052734 C-6.49973533 0.71384936 -3.77550686 0.03446039 0 0 Z " fill="#000000" transform="translate(110.938720703125,114.70947265625)"/>
<path d="M0 0 C4.75094941 4.34334334 7.96721726 9.4379819 8.46484375 15.9765625 C8.04575489 22.45544977 4.4930428 27.82928 -0.015625 32.328125 C-13.84947158 43.45224905 -32.02836935 45.86169995 -49.22265625 44.5390625 C-62.44265185 43.07603208 -74.32907775 38.58382485 -84.22265625 29.5390625 C-87.89683792 24.85661702 -90.15473556 19.88262641 -89.765625 13.8671875 C-88.08331111 6.65381285 -83.54644764 0.90580241 -77.46484375 -3.15625 C-54.43100951 -16.55921278 -21.47033116 -17.14461334 0 0 Z " fill="#FD1919" transform="translate(217.22265625,207.4609375)"/>
<path d="M0 0 C31.89539007 29.29227503 54.94443151 69.94320518 57 114 C58.86112792 162.83319332 45.45815039 207.74625984 12.02197266 244.15380859 C-17.84187485 275.99492669 -58.90180999 297.43366809 -103.06201172 299.11669922 C-152.05096664 300.52963937 -196.35340126 285.72344141 -232.35546875 251.95703125 C-264.16787589 221.42135265 -283.9358447 179.88015308 -285.21484375 135.53515625 C-286.12868682 86.58407725 -269.84000608 42.86056647 -235.84326172 7.44238281 C-172.84320243 -56.62789266 -66.89169967 -60.33589533 0 0 Z M-238.40234375 13.08984375 C-270.37803177 48.91223108 -284.93936648 93.30595017 -283 141 C-280.05577296 184.12510331 -259.25821868 226.20575111 -227 255 C-190.54767451 285.45542301 -146.51164073 300.0388884 -99.0390625 296.79785156 C-56.65296126 292.90854518 -13.95319495 272.06357477 13.54736328 239.14794922 C43.43036375 202.3067449 57.89489476 157.6891031 53.5390625 110.21875 C48.79522947 67.84675838 27.47028603 25.85911902 -5.87890625 -1.19140625 C-76.21843795 -56.87281516 -175.45924379 -51.49080028 -238.40234375 13.08984375 Z " fill="#535353" transform="translate(291,47)"/>
</svg>
